<svg width="42" height="42" viewBox="0 0 42 42" fill="none" xmlns="http://www.w3.org/2000/svg">
<circle cx="21" cy="21" r="21" fill="url(#paint0_linear_2830_1399)"/>
<g clip-path="url(#clip0_2830_1399)" filter="url(#filter0_ddddd_2830_1399)">
<path d="M22.4874 21.0005L29.0938 14.3941C29.1914 14.2966 29.2688 14.1808 29.3217 14.0533C29.3745 13.9259 29.4017 13.7893 29.4017 13.6513C29.4017 13.5133 29.3745 13.3767 29.3217 13.2492C29.2688 13.1218 29.1914 13.006 29.0938 12.9085C28.9963 12.8109 28.8805 12.7334 28.753 12.6806C28.6256 12.6278 28.489 12.6006 28.351 12.6006C28.213 12.6006 28.0764 12.6278 27.949 12.6806C27.8215 12.7334 27.7057 12.8109 27.6082 12.9085L21.0018 19.5149L14.3951 12.9085C14.2976 12.8109 14.1818 12.7334 14.0543 12.6806C13.9269 12.6278 13.7902 12.6006 13.6523 12.6006C13.5143 12.6006 13.3777 12.6278 13.2502 12.6806C13.1228 12.7334 13.007 12.8109 12.9095 12.9085C12.8119 13.006 12.7344 13.1218 12.6816 13.2492C12.6288 13.3767 12.6016 13.5133 12.6016 13.6513C12.6016 13.7893 12.6288 13.9259 12.6816 14.0533C12.7344 14.1808 12.8119 14.2966 12.9095 14.3941L19.5162 21.0005L12.9095 27.6069C12.8119 27.7044 12.7346 27.8202 12.6818 27.9477C12.629 28.0751 12.6019 28.2117 12.6019 28.3496C12.6019 28.4875 12.6291 28.6241 12.6819 28.7516C12.7347 28.879 12.8121 28.9948 12.9096 29.0923C13.0072 29.1898 13.123 29.2672 13.2504 29.3199C13.3779 29.3727 13.5145 29.3999 13.6524 29.3998C13.7903 29.3998 13.9269 29.3726 14.0543 29.3198C14.1818 29.267 14.2975 29.1897 14.3951 29.0921L21.0018 22.4857L27.6082 29.0921C27.8134 29.2973 28.0824 29.4 28.351 29.4C28.6196 29.4 28.8886 29.2973 29.0938 29.0921C29.1914 28.9946 29.2688 28.8788 29.3217 28.7514C29.3745 28.6239 29.4017 28.4873 29.4017 28.3493C29.4017 28.2113 29.3745 28.0747 29.3217 27.9473C29.2688 27.8198 29.1914 27.704 29.0938 27.6065L22.4874 21.0005Z" fill="white"/>
</g>
<defs>
<filter id="filter0_ddddd_2830_1399" x="10.6016" y="11.6001" width="20.7969" height="24.7998" filterUnits="userSpaceOnUse" color-interpolation-filters="sRGB">
<feFlood flood-opacity="0" result="BackgroundImageFix"/>
<feColorMatrix in="SourceAlpha" type="matrix" values="0 0 0 0 0 0 0 0 0 0 0 0 0 0 0 0 0 0 127 0" result="hardAlpha"/>
<feOffset/>
<feColorMatrix type="matrix" values="0 0 0 0 0 0 0 0 0 0 0 0 0 0 0 0 0 0 0.1 0"/>
<feBlend mode="normal" in2="BackgroundImageFix" result="effect1_dropShadow_2830_1399"/>
<feColorMatrix in="SourceAlpha" type="matrix" values="0 0 0 0 0 0 0 0 0 0 0 0 0 0 0 0 0 0 127 0" result="hardAlpha"/>
<feOffset/>
<feGaussianBlur stdDeviation="0.5"/>
<feColorMatrix type="matrix" values="0 0 0 0 0 0 0 0 0 0 0 0 0 0 0 0 0 0 0.1 0"/>
<feBlend mode="normal" in2="effect1_dropShadow_2830_1399" result="effect2_dropShadow_2830_1399"/>
<feColorMatrix in="SourceAlpha" type="matrix" values="0 0 0 0 0 0 0 0 0 0 0 0 0 0 0 0 0 0 127 0" result="hardAlpha"/>
<feOffset dy="1"/>
<feGaussianBlur stdDeviation="0.5"/>
<feColorMatrix type="matrix" values="0 0 0 0 0 0 0 0 0 0 0 0 0 0 0 0 0 0 0.09 0"/>
<feBlend mode="normal" in2="effect2_dropShadow_2830_1399" result="effect3_dropShadow_2830_1399"/>
<feColorMatrix in="SourceAlpha" type="matrix" values="0 0 0 0 0 0 0 0 0 0 0 0 0 0 0 0 0 0 127 0" result="hardAlpha"/>
<feOffset dy="3"/>
<feGaussianBlur stdDeviation="1"/>
<feColorMatrix type="matrix" values="0 0 0 0 0 0 0 0 0 0 0 0 0 0 0 0 0 0 0.05 0"/>
<feBlend mode="normal" in2="effect3_dropShadow_2830_1399" result="effect4_dropShadow_2830_1399"/>
<feColorMatrix in="SourceAlpha" type="matrix" values="0 0 0 0 0 0 0 0 0 0 0 0 0 0 0 0 0 0 127 0" result="hardAlpha"/>
<feOffset dy="5"/>
<feGaussianBlur stdDeviation="1"/>
<feColorMatrix type="matrix" values="0 0 0 0 0 0 0 0 0 0 0 0 0 0 0 0 0 0 0.01 0"/>
<feBlend mode="normal" in2="effect4_dropShadow_2830_1399" result="effect5_dropShadow_2830_1399"/>
<feBlend mode="normal" in="SourceGraphic" in2="effect5_dropShadow_2830_1399" result="shape"/>
</filter>
<linearGradient id="paint0_linear_2830_1399" x1="21" y1="0" x2="34.0345" y2="45.6207" gradientUnits="userSpaceOnUse">
<stop stop-color="#E1562A"/>
<stop offset="1" stop-color="#E12A2A"/>
</linearGradient>
<clipPath id="clip0_2830_1399">
<rect width="16.8" height="16.8" fill="white" transform="translate(12.6016 12.6001)"/>
</clipPath>
</defs>
</svg>
