<svg width="39" height="40" viewBox="0 0 39 40" fill="none" xmlns="http://www.w3.org/2000/svg">
<path d="M15.1906 3.46247C15.974 2.67913 16.1698 2.09163 16.5615 1.8958C18.1281 0.524967 20.4781 0.524967 22.2406 1.8958C22.6323 2.09163 23.024 2.67913 23.6115 3.46247C24.0031 3.85413 24.199 4.04997 24.199 4.2458C24.9823 5.02913 26.1573 5.4208 27.3323 5.4208H28.3115C29.4865 5.22497 30.074 5.22497 30.4656 5.22497C32.6198 5.4208 34.1865 7.1833 34.3823 9.14163C34.3823 9.5333 34.3823 10.1208 34.1865 11.2958V12.275C34.1865 13.45 34.5781 14.4291 35.3615 15.4083C35.5573 15.6041 35.7531 15.8 36.1448 15.9958C36.9281 16.7791 37.5156 16.975 37.7115 17.3666C39.0823 18.9333 39.0823 21.2833 37.7115 23.0458C37.5156 23.4375 36.9281 23.8291 36.1448 24.4166C35.7531 24.8083 35.5573 25.0041 35.3615 25.0041C34.5781 25.7875 34.1865 26.9625 34.1865 28.1375V29.1166C34.3823 30.2916 34.3823 30.8791 34.3823 31.2708C34.1865 33.425 32.424 34.9916 30.4656 35.1875C30.074 35.1875 29.4865 35.1875 28.3115 34.9916H27.3323C26.1573 34.9916 25.1781 35.3833 24.199 36.1666C24.0031 36.3625 23.8073 36.5583 23.6115 36.95C22.8281 37.7333 22.6323 38.3208 22.2406 38.5166C20.674 39.8875 18.324 39.8875 16.5615 38.5166C16.1698 38.3208 15.7781 37.7333 15.1906 36.95C14.799 36.5583 14.6031 36.3625 14.6031 36.1666C13.8198 35.3833 12.6448 34.9916 11.4698 34.9916H10.4906C9.31563 35.1875 8.72813 35.1875 8.33646 35.1875C6.18229 34.9916 4.61563 33.2291 4.41979 31.2708C4.41979 30.8791 4.41979 30.2916 4.61563 29.1166V28.1375C4.61563 26.9625 4.22396 25.9833 3.44063 25.0041C3.24479 24.8083 3.04896 24.6125 2.65729 24.4166C1.87396 23.6333 1.28646 23.4375 1.09063 23.0458C-0.280208 21.4791 -0.280208 19.1291 1.09063 17.3666C1.28646 16.975 1.87396 16.5833 2.65729 15.9958C3.04896 15.6041 3.24479 15.4083 3.44063 15.4083C4.22396 14.625 4.61563 13.45 4.61563 12.275V11.2958C4.41979 10.3166 4.41979 9.72914 4.41979 9.33747C4.61563 7.1833 6.37813 5.61663 8.33646 5.4208C8.72813 5.4208 9.31563 5.4208 10.4906 5.61663H11.4698C12.6448 5.61663 13.624 5.22497 14.6031 4.44163C14.799 4.04997 14.9948 3.85413 15.1906 3.46247Z" fill="url(#paint0_linear_2830_1364)"/>
<path d="M17.5396 25.9834C17.1479 25.9834 16.7562 25.7875 16.5604 25.5917L12.6438 21.675C12.0563 21.0875 12.0563 20.1084 12.6438 19.5209C13.2313 18.9334 14.2104 18.9334 14.7979 19.5209L17.7354 22.4584L24.5896 15.6042C25.1771 15.0167 26.1562 15.0167 26.7437 15.6042C27.3312 16.1917 27.3312 17.1709 26.7437 17.7584L18.9104 25.5917C18.3229 25.7875 17.9312 25.9834 17.5396 25.9834Z" fill="white"/>
<defs>
<linearGradient id="paint0_linear_2830_1364" x1="19.401" y1="0.867676" x2="19.401" y2="39.5448" gradientUnits="userSpaceOnUse">
<stop stop-color="#7EC722"/>
<stop offset="1" stop-color="#22C729"/>
</linearGradient>
</defs>
</svg>
