<svg width="34" height="34" viewBox="0 0 34 34" fill="none" xmlns="http://www.w3.org/2000/svg">
<circle cx="17.0078" cy="16.9307" r="16.5" fill="#FF6B00"/>
<g clip-path="url(#clip0_3109_19)">
<path d="M10.5689 23.5334H23.4467C23.6187 23.5334 23.7791 23.4632 23.8867 23.3409C23.9802 23.2348 24.0216 23.1002 24.0038 22.9619C23.7018 20.6092 22.2552 18.6488 20.2748 17.6035C19.4377 18.4406 18.2821 18.959 17.0078 18.959C15.7335 18.959 14.5779 18.4406 13.7409 17.6035C11.7604 18.6485 10.3135 20.6092 10.0118 22.9619C9.99406 23.1002 10.0357 23.2351 10.129 23.3409C10.2366 23.4632 10.397 23.5334 10.5689 23.5334Z" fill="white"/>
<path d="M14.1072 17.0953C14.1823 17.1741 14.2608 17.2492 14.342 17.3219C15.0515 17.9566 15.9845 18.346 17.0089 18.346C18.0333 18.346 18.9663 17.9563 19.6758 17.3219C19.7571 17.2492 19.8356 17.1741 19.9107 17.0953C19.9855 17.0165 20.0585 16.9359 20.1271 16.8513C20.683 16.1629 21.0178 15.2888 21.0178 14.3371C21.0178 12.1264 19.2192 10.3281 17.0089 10.3281C14.7985 10.3281 13 12.1267 13 14.337C13 15.2888 13.3348 16.1629 13.8907 16.8512C13.9591 16.9359 14.032 17.0162 14.1072 17.0953Z" fill="white"/>
</g>
<defs>
<clipPath id="clip0_3109_19">
<rect width="14" height="14" fill="white" transform="translate(10.0078 9.93066)"/>
</clipPath>
</defs>
</svg>
