<svg width="34" height="34" viewBox="0 0 34 34" fill="none" xmlns="http://www.w3.org/2000/svg">
<circle cx="17.0078" cy="16.9297" r="16.5" fill="#FF6B00"/>
<g clip-path="url(#clip0_3109_20)">
<path fill-rule="evenodd" clip-rule="evenodd" d="M23.7522 22.244C23.6592 22.3367 23.5471 22.4552 23.4282 22.5805C23.1316 22.8954 22.761 23.2867 22.5288 23.4454C21.3068 24.2804 19.672 23.8809 18.5156 23.3991C16.9901 22.7634 15.3292 21.5919 13.838 20.1004C12.3454 18.6089 11.1739 16.9475 10.5383 15.4229C10.057 14.2663 9.65665 12.6311 10.4918 11.4089C10.6504 11.1765 11.0426 10.8065 11.357 10.5093C11.4828 10.3908 11.6004 10.2788 11.6934 10.1861C11.8584 10.0219 12.0818 9.92969 12.3146 9.92969C12.5475 9.92969 12.7708 10.0219 12.9359 10.1861L15.1843 12.4339C15.3485 12.5989 15.4406 12.8222 15.4406 13.055C15.4406 13.2878 15.3485 13.5111 15.1843 13.6761L14.5718 14.2874C14.3673 14.4905 14.2338 14.7541 14.1911 15.0392C14.1485 15.3243 14.1991 15.6155 14.3353 15.8695C15.1778 17.4595 16.4784 18.7599 18.0686 19.6021C18.3225 19.7383 18.6137 19.7888 18.8986 19.7461C19.1836 19.7034 19.4472 19.5698 19.6501 19.3652L20.2611 18.7539C20.4261 18.5897 20.6495 18.4975 20.8823 18.4975C21.1152 18.4975 21.3385 18.5897 21.5036 18.7539L23.7522 21.002C23.9163 21.167 24.0085 21.3903 24.0085 21.623C24.0085 21.8558 23.9163 22.079 23.7522 22.244Z" fill="white"/>
</g>
<defs>
<clipPath id="clip0_3109_20">
<rect width="14" height="14" fill="white" transform="translate(10.0078 9.92969)"/>
</clipPath>
</defs>
</svg>
