<svg width="25" height="25" viewBox="0 0 25 25" fill="none" xmlns="http://www.w3.org/2000/svg">
<path d="M20.7427 10.096H20.2555V7.81614C20.2555 3.5993 16.9092 0.0767361 12.7267 0.00154089C12.6124 -0.000513629 12.384 -0.000513629 12.2698 0.00154089C8.08716 0.0767361 4.74087 3.5993 4.74087 7.81614V10.096H4.25369C3.50297 10.096 2.89062 10.8707 2.89062 11.8274V23.2624C2.89062 24.2181 3.50297 25 4.25374 25H20.7427C21.4934 25 22.1058 24.2181 22.1058 23.2624V11.8274C22.1058 10.8707 21.4934 10.096 20.7427 10.096ZM14.043 17.5333V20.9886C14.043 21.3842 13.7118 21.719 13.3158 21.719H11.6807C11.2847 21.719 10.9535 21.3842 10.9535 20.9886V17.5333C10.5694 17.1553 10.3458 16.6326 10.3458 16.0543C10.3458 14.9586 11.1929 14.017 12.2698 13.9735C12.384 13.9688 12.6126 13.9688 12.7267 13.9735C13.8037 14.017 14.6507 14.9586 14.6507 16.0543C14.6506 16.6326 14.427 17.1553 14.043 17.5333ZM17.0448 10.096H12.7267H12.2698H7.95161V7.81614C7.95161 5.30424 9.99298 3.22728 12.4982 3.22728C15.0034 3.22728 17.0449 5.30424 17.0449 7.81614V10.096H17.0448Z" fill="#40A52F"/>
</svg>
