<svg width="36" height="36" viewBox="0 0 36 36" fill="none" xmlns="http://www.w3.org/2000/svg">
<g clip-path="url(#clip0_2830_2080)">
<path d="M27.0342 23.5233C25.8725 22.3764 24.4221 22.3764 23.2678 23.5233C22.3873 24.3965 21.5067 25.2696 20.641 26.1576C20.4042 26.4017 20.2044 26.4535 19.9158 26.2907C19.346 25.98 18.7393 25.7284 18.1917 25.388C15.6389 23.7823 13.5004 21.7178 11.6061 19.3944C10.6663 18.24 9.83019 17.0043 9.24563 15.6132C9.12724 15.332 9.14943 15.147 9.37882 14.9176C10.2594 14.0667 11.1177 13.1935 11.9835 12.3204C13.1896 11.1068 13.1896 9.68612 11.9761 8.46519C11.2879 7.76963 10.5997 7.08887 9.91159 6.39332C9.20123 5.68296 8.49827 4.9652 7.78051 4.26224C6.61878 3.13011 5.16847 3.13011 4.01414 4.26964C3.12619 5.14279 2.27524 6.03814 1.37249 6.89649C0.53634 7.68824 0.114565 8.65758 0.0257699 9.78972C-0.114822 11.6322 0.336552 13.3711 0.972914 15.0656C2.27524 18.573 4.25832 21.6882 6.66318 24.5444C9.91159 28.407 13.789 31.463 18.3249 33.6681C20.3672 34.6597 22.4835 35.4218 24.7847 35.5476C26.3682 35.6364 27.7445 35.2368 28.8471 34.0011C29.6018 33.1575 30.4528 32.388 31.2519 31.5814C32.4359 30.3827 32.4433 28.9324 31.2667 27.7485C29.8608 26.3351 28.4475 24.9292 27.0342 23.5233Z" fill="url(#paint0_linear_2830_2080)"/>
<path d="M25.6227 17.6257L28.3531 17.1595C27.924 14.6511 26.74 12.3794 24.9419 10.5739C23.0402 8.67222 20.6354 7.47349 17.9863 7.10352L17.6016 9.84875C19.6512 10.1373 21.5159 11.0623 22.9884 12.5348C24.3796 13.9259 25.2897 15.687 25.6227 17.6257Z" fill="url(#paint1_linear_2830_2080)"/>
<path d="M29.889 5.75784C26.7368 2.60562 22.7485 0.615141 18.3457 0.000976562L17.9609 2.74622C21.7643 3.27898 25.2125 5.00308 27.9356 7.71872C30.518 10.3012 32.2125 13.5644 32.8267 17.1532L35.5571 16.687C34.8393 12.5284 32.8785 8.75466 29.889 5.75784Z" fill="url(#paint2_linear_2830_2080)"/>
</g>
<defs>
<linearGradient id="paint0_linear_2830_2080" x1="16.0723" y1="3.41406" x2="16.0723" y2="35.5595" gradientUnits="userSpaceOnUse">
<stop stop-color="#FFAD0D"/>
<stop offset="1" stop-color="#E1562A"/>
</linearGradient>
<linearGradient id="paint1_linear_2830_2080" x1="22.9773" y1="7.10352" x2="22.9773" y2="17.6257" gradientUnits="userSpaceOnUse">
<stop stop-color="#FFAD0D"/>
<stop offset="1" stop-color="#E1562A"/>
</linearGradient>
<linearGradient id="paint2_linear_2830_2080" x1="26.759" y1="0.000976562" x2="26.759" y2="17.1532" gradientUnits="userSpaceOnUse">
<stop stop-color="#FFAD0D"/>
<stop offset="1" stop-color="#E1562A"/>
</linearGradient>
<clipPath id="clip0_2830_2080">
<rect width="35.5594" height="35.5594" fill="white"/>
</clipPath>
</defs>
</svg>
