<svg width="32" height="39" viewBox="0 0 32 39" fill="none" xmlns="http://www.w3.org/2000/svg">
<path d="M30.4722 3.6664H16.8096C16.296 1.56476 14.3978 0 12.1402 0C9.88246 0 7.98445 1.56476 7.47078 3.6664H1.14099C0.510861 3.6664 0 4.17726 0 4.80739V37.805C0 38.4351 0.510861 38.946 1.14099 38.946H30.4722C31.1023 38.946 31.6132 38.4351 31.6132 37.805V4.80739C31.6132 4.17726 31.1023 3.6664 30.4722 3.6664ZM7.33287 4.80739C7.33287 4.41428 7.3814 4.03243 7.47085 3.6664H9.88839C10.3059 2.84579 11.1582 2.28199 12.1402 2.28199C13.1222 2.28199 13.9745 2.84579 14.3921 3.6664H9.88847C9.71397 4.00938 9.61486 4.39694 9.61486 4.80739V12.1402C9.61486 13.5327 10.7477 14.6656 12.1402 14.6656C13.5327 14.6656 14.6656 13.5327 14.6656 12.1402V10.9181C14.6656 10.288 15.1764 9.77711 15.8066 9.77711C16.4367 9.77711 16.9476 10.288 16.9476 10.9181V12.1402C16.9476 14.791 14.7909 16.9476 12.1402 16.9476C9.48943 16.9476 7.33287 14.7909 7.33287 12.1402V4.80739ZM23.1393 31.6132H8.47386C7.84373 31.6132 7.33287 31.1023 7.33287 30.4722C7.33287 29.842 7.84373 29.3312 8.47386 29.3312H23.1394C23.7695 29.3312 24.2804 29.842 24.2804 30.4722C24.2803 31.1023 23.7695 31.6132 23.1393 31.6132ZM23.1393 24.2804H8.47386C7.84373 24.2804 7.33287 23.7695 7.33287 23.1394C7.33287 22.5092 7.84373 21.9984 8.47386 21.9984H23.1394C23.7695 21.9984 24.2804 22.5092 24.2804 23.1394C24.2803 23.7695 23.7695 24.2804 23.1393 24.2804Z" fill="url(#paint0_linear_2830_2074)"/>
<defs>
<linearGradient id="paint0_linear_2830_2074" x1="15.8066" y1="0" x2="15.8066" y2="38.946" gradientUnits="userSpaceOnUse">
<stop stop-color="#FFAD0D"/>
<stop offset="1" stop-color="#E1562A"/>
</linearGradient>
</defs>
</svg>
