<svg width="43" height="43" viewBox="0 0 43 43" fill="none" xmlns="http://www.w3.org/2000/svg">
<g clip-path="url(#clip0_2830_2089)">
<path fill-rule="evenodd" clip-rule="evenodd" d="M30.1785 8.84797C33.8487 9.69964 35.2527 11.8458 37.0129 14.7997H30.1785V8.84797ZM8.72928 15.0477C9.44789 15.0477 9.96949 15.3946 9.96949 16.2053C9.96949 16.889 9.41624 17.4435 8.73283 17.4455H1.24021C0.555189 17.4455 0 18.001 0 18.6857C0 19.3707 0.555189 19.9259 1.24021 19.9259H12.4021C13.0936 19.9259 13.6472 20.4808 13.6472 21.1661C13.6472 21.8511 13.092 22.4063 12.407 22.4063H1.24021C0.555189 22.4063 0 22.9615 0 23.6465C0 24.3316 0.555189 24.8867 1.24021 24.8867H3.96868V28.6074C3.96868 29.2924 4.52387 29.8476 5.20889 29.8476H7.70191C8.14632 32.0367 10.0806 33.6509 12.3608 33.6509C14.641 33.6509 16.5752 32.0367 17.0196 29.8476H29.6123C30.0567 32.0367 31.991 33.6509 34.2712 33.6509C36.5514 33.6509 38.4856 32.0367 38.9301 29.8476H41.0924C41.7774 29.8476 42.3326 29.2924 42.3326 28.6074V21.1661C42.3326 17.5272 38.4944 17.2856 38.4908 17.2801H28.9383C28.2533 17.2801 27.6981 16.7249 27.6981 16.0399V8.59863H5.20889C4.52387 8.59863 3.96868 9.15382 3.96868 9.83884V12.5673H2.48042C1.7954 12.5673 1.24021 13.1225 1.24021 13.8075C1.24021 14.4925 1.7954 15.0477 2.48042 15.0477H8.72928ZM35.8789 27.289C36.7668 28.1769 36.7668 29.617 35.8789 30.5048C34.4508 31.933 31.9975 30.917 31.9975 28.8968C31.9975 26.8769 34.4508 25.8608 35.8789 27.289ZM13.9685 27.289C14.8564 28.1769 14.8564 29.617 13.9685 30.5048C12.5403 31.933 10.0871 30.917 10.0871 28.8968C10.0871 26.8769 12.5403 25.8608 13.9685 27.289Z" fill="url(#paint0_linear_2830_2089)"/>
</g>
<defs>
<linearGradient id="paint0_linear_2830_2089" x1="21.1663" y1="8.59863" x2="21.1663" y2="33.6509" gradientUnits="userSpaceOnUse">
<stop stop-color="#FFAD0D"/>
<stop offset="1" stop-color="#E1562A"/>
</linearGradient>
<clipPath id="clip0_2830_2089">
<rect width="42.3326" height="42.3326" fill="white"/>
</clipPath>
</defs>
</svg>
