<svg width="34" height="35" viewBox="0 0 34 35" fill="none" xmlns="http://www.w3.org/2000/svg">
<g clip-path="url(#clip0_2830_2094)">
<path d="M31.2385 28.214H25.9051C22.5442 28.214 19.8098 25.4015 19.8098 21.9446C19.8098 18.4877 22.5442 15.6752 25.9051 15.6752H31.2385C31.6596 15.6752 32.0004 15.3246 32.0004 14.8915V12.5404C32.0004 10.897 30.7611 9.56054 29.1953 9.43094L24.8195 1.56963C24.414 0.842572 23.7592 0.322918 22.9757 0.107136C22.1959 -0.107176 21.3805 0.00538 20.6826 0.423205L5.6822 9.40566H3.04767C1.36687 9.40566 0 10.8115 0 12.5404V31.3488C0 33.0776 1.3668 34.4835 3.04767 34.4835H28.9527C30.6335 34.4835 32.0004 33.0777 32.0004 31.3488V28.9977C32.0004 28.5645 31.6596 28.214 31.2385 28.214ZM25.7645 6.42307L27.4246 9.40566H20.7838L25.7645 6.42307ZM8.7108 9.40566L21.4496 1.77777C21.7942 1.57037 22.1967 1.51526 22.5814 1.62091C22.9705 1.72803 23.295 1.98672 23.4966 2.34871L23.4982 2.35157L11.7188 9.40566H8.7108Z" fill="url(#paint0_linear_2830_2094)"/>
<path d="M31.2408 17.2422H25.9074C23.3865 17.2422 21.3359 19.3514 21.3359 21.9443C21.3359 24.5372 23.3865 26.6464 25.9074 26.6464H31.2408C32.5013 26.6464 33.5266 25.5918 33.5266 24.2953V19.5932C33.5266 18.2968 32.5013 17.2422 31.2408 17.2422ZM25.9074 23.5116C25.0674 23.5116 24.3836 22.8083 24.3836 21.9443C24.3836 21.0803 25.0674 20.3769 25.9074 20.3769C26.7474 20.3769 27.4312 21.0803 27.4312 21.9443C27.4313 22.8083 26.7475 23.5116 25.9074 23.5116Z" fill="url(#paint1_linear_2830_2094)"/>
</g>
<defs>
<linearGradient id="paint0_linear_2830_2094" x1="16.0002" y1="0.000976562" x2="16.0002" y2="34.4835" gradientUnits="userSpaceOnUse">
<stop stop-color="#FFAD0D"/>
<stop offset="1" stop-color="#E1562A"/>
</linearGradient>
<linearGradient id="paint1_linear_2830_2094" x1="27.4312" y1="17.2422" x2="27.4312" y2="26.6464" gradientUnits="userSpaceOnUse">
<stop stop-color="#FFAD0D"/>
<stop offset="1" stop-color="#E1562A"/>
</linearGradient>
<clipPath id="clip0_2830_2094">
<rect width="33.5247" height="34.4825" fill="white"/>
</clipPath>
</defs>
</svg>
