<svg width="20" height="19" viewBox="0 0 20 19" fill="none" xmlns="http://www.w3.org/2000/svg">
<circle cx="10.451" cy="9.95453" r="6.81818" fill="white"/>
<path d="M7.29427 7.41667C7.29427 7.07209 7.57469 6.79167 7.91927 6.79167C8.26385 6.79167 8.54427 7.07209 8.54427 7.41667C8.54427 7.76125 8.26385 8.04167 7.91927 8.04167C7.57469 8.04167 7.29427 7.76125 7.29427 7.41667ZM12.0859 10.9583C11.7414 10.9583 11.4609 11.2388 11.4609 11.5833C11.4609 11.9279 11.7414 12.2083 12.0859 12.2083C12.4305 12.2083 12.7109 11.9279 12.7109 11.5833C12.7109 11.2388 12.4305 10.9583 12.0859 10.9583ZM17.7226 11.2621C17.6907 11.4027 17.8728 11.7694 17.9932 12.0121C18.2255 12.48 18.4889 13.0102 18.2628 13.4783C18.0336 13.9531 17.4491 14.0783 16.933 14.1885C16.672 14.2446 16.2776 14.329 16.1924 14.4354C16.1059 14.544 16.1109 14.9492 16.1143 15.2173C16.1209 15.7427 16.1282 16.3385 15.7186 16.6658C15.3105 16.9917 14.7326 16.8527 14.223 16.7304C13.9607 16.6675 13.5653 16.5719 13.438 16.6338C13.3176 16.6917 13.1486 17.0548 13.0368 17.295C12.8132 17.7756 12.5599 18.32 12.042 18.4377C11.9788 18.4521 11.9143 18.4594 11.8495 18.4594C11.4268 18.4594 11.0491 18.1504 10.6822 17.8504C10.458 17.6669 10.1507 17.4156 10.0024 17.4156C9.85427 17.4156 9.54698 17.6669 9.32281 17.8504C8.92094 18.179 8.4651 18.5525 7.96323 18.4375C7.44531 18.3198 7.19177 17.7752 6.96802 17.295C6.85635 17.0548 6.68719 16.6917 6.56698 16.6335C6.43948 16.5713 6.04365 16.6673 5.78177 16.7302C5.27198 16.8529 4.69448 16.9913 4.28615 16.6656C3.87635 16.3383 3.88365 15.7423 3.89052 15.2167C3.89385 14.9485 3.89885 14.5435 3.8126 14.4352C3.7274 14.3285 3.33302 14.2442 3.07198 14.1883C2.55573 14.0779 1.97115 13.9527 1.74198 13.4777C1.51615 13.01 1.77969 12.4796 2.01177 12.0117C2.1324 11.7692 2.31448 11.4023 2.2826 11.2617C2.25385 11.1356 1.9401 10.8921 1.7326 10.7308C1.3124 10.405 0.835938 10.035 0.835938 9.5C0.835938 8.965 1.3124 8.59521 1.73281 8.26896C1.94031 8.10792 2.25406 7.86438 2.28281 7.73813C2.31469 7.5975 2.1326 7.23063 2.01219 6.98792C1.7799 6.52 1.51656 5.98979 1.7426 5.52167C1.97177 5.04688 2.55635 4.92167 3.0724 4.81125C3.33344 4.75542 3.72781 4.67104 3.81281 4.56459C3.89948 4.45604 3.89448 4.05084 3.89115 3.78271C3.88448 3.25709 3.87719 2.66125 4.28677 2.33396C4.6949 2.00813 5.27281 2.14688 5.7824 2.26938C6.04469 2.33229 6.4401 2.4275 6.5674 2.36625C6.68781 2.30813 6.85677 1.94521 6.96865 1.70479C7.19219 1.22438 7.44552 0.680003 7.96344 0.562295C8.46469 0.448545 8.92135 0.820628 9.32302 1.14938C9.54739 1.33292 9.85469 1.58417 10.0028 1.58417C10.1509 1.58417 10.4582 1.33292 10.6824 1.14959C11.0845 0.820628 11.5401 0.447711 12.0422 0.562295C12.5599 0.680003 12.8134 1.22459 13.0372 1.705C13.1491 1.94521 13.318 2.30834 13.4384 2.36646C13.5661 2.42792 13.9614 2.3325 14.2232 2.26959C14.733 2.14709 15.3107 2.00834 15.7191 2.33417C16.1289 2.66146 16.1216 3.25729 16.1147 3.78313C16.1114 4.05125 16.1064 4.45646 16.1926 4.56459C16.2778 4.67104 16.6722 4.75563 16.9332 4.81146C17.4495 4.92188 18.0341 5.04688 18.2632 5.52188C18.4891 5.9898 18.2255 6.52021 17.9934 6.98813C17.8728 7.23084 17.6907 7.5975 17.7226 7.73813C17.7514 7.86438 18.0651 8.10792 18.2726 8.26896C18.6928 8.59521 19.1693 8.965 19.1693 9.5C19.1693 10.035 18.6928 10.4048 18.2724 10.731C18.0649 10.8923 17.7511 11.1356 17.7226 11.2621ZM7.91927 8.875C8.72323 8.875 9.3776 8.22084 9.3776 7.41667C9.3776 6.6125 8.72323 5.95834 7.91927 5.95834C7.11531 5.95834 6.46094 6.6125 6.46094 7.41667C6.46094 8.22084 7.11531 8.875 7.91927 8.875ZM13.2139 6.87792C13.2536 6.83948 13.2854 6.79351 13.3072 6.74267C13.3291 6.69184 13.3406 6.63716 13.341 6.58184C13.3415 6.52651 13.331 6.47165 13.31 6.42044C13.2891 6.36923 13.2581 6.32271 13.219 6.28359C13.1799 6.24447 13.1334 6.21353 13.0822 6.19258C13.031 6.17163 12.9761 6.16108 12.9208 6.16157C12.8654 6.16205 12.8108 6.17354 12.7599 6.19538C12.7091 6.21722 12.6631 6.24896 12.6247 6.28875L6.79135 12.1221C6.75156 12.1605 6.71982 12.2065 6.69798 12.2573C6.67614 12.3082 6.66465 12.3628 6.66417 12.4182C6.66368 12.4735 6.67423 12.5284 6.69518 12.5796C6.71613 12.6308 6.74707 12.6773 6.78619 12.7164C6.82531 12.7555 6.87183 12.7865 6.92304 12.8074C6.97425 12.8284 7.02911 12.8389 7.08444 12.8384C7.13976 12.838 7.19444 12.8265 7.24527 12.8046C7.29611 12.7828 7.34208 12.751 7.38052 12.7113L13.2139 6.87792ZM13.5443 11.5833C13.5443 10.7794 12.8899 10.125 12.0859 10.125C11.282 10.125 10.6276 10.7794 10.6276 11.5833C10.6276 12.3873 11.282 13.0417 12.0859 13.0417C12.8899 13.0417 13.5443 12.3873 13.5443 11.5833Z" fill="#FF1313"/>
</svg>
