<svg width="22" height="22" viewBox="0 0 22 22" fill="none" xmlns="http://www.w3.org/2000/svg">
<circle opacity="0.1" cx="10.896" cy="10.896" r="10.896" fill="white"/>
<path fill-rule="evenodd" clip-rule="evenodd" d="M14.864 14.0211C14.8094 14.0756 14.7434 14.1453 14.6735 14.219C14.4991 14.4041 14.2812 14.6343 14.1446 14.7276C13.4259 15.2187 12.4645 14.9837 11.7845 14.7004C10.8874 14.3266 9.91068 13.6376 9.03371 12.7605C8.15592 11.8834 7.467 10.9064 7.09322 10.0098C6.8102 9.32957 6.57474 8.36797 7.06588 7.64918C7.15914 7.51249 7.38982 7.29491 7.57471 7.12014C7.64868 7.05044 7.71782 6.98459 7.7725 6.9301C7.86956 6.83352 8.00092 6.7793 8.13785 6.7793C8.27478 6.7793 8.40614 6.83352 8.5032 6.9301L9.82545 8.25196C9.92198 8.34902 9.97617 8.48035 9.97617 8.61724C9.97617 8.75413 9.92198 8.88545 9.82545 8.98251L9.46525 9.34198C9.34496 9.4614 9.26644 9.61646 9.24138 9.7841C9.21632 9.95174 9.24606 10.123 9.32618 10.2724C9.82161 11.2074 10.5865 11.9722 11.5216 12.4674C11.671 12.5475 11.8422 12.5772 12.0098 12.5521C12.1774 12.527 12.3324 12.4485 12.4517 12.3281L12.811 11.9686C12.9081 11.8721 13.0394 11.8178 13.1763 11.8178C13.3133 11.8178 13.4446 11.8721 13.5417 11.9686L14.864 13.2907C14.9606 13.3878 15.0147 13.5191 15.0147 13.6559C15.0147 13.7928 14.9606 13.9241 14.864 14.0211Z" fill="white"/>
</svg>
