<svg width="24" height="18" viewBox="0 0 24 18" fill="none" xmlns="http://www.w3.org/2000/svg">
<path d="M15.4207 17.9199C15.3354 17.9626 15.1647 17.9839 14.9087 17.9839C14.6527 17.9839 14.1407 17.8559 13.3727 17.5999C12.6047 17.3439 12.114 17.1306 11.9007 16.9599C13.522 15.1252 15.2714 12.9279 17.1487 10.3679C15.954 10.0692 14.9514 9.45055 14.1407 8.51189C13.33 7.57322 12.9247 6.42122 12.9247 5.05589C12.9247 3.73322 13.4367 2.55989 14.4607 1.53589C15.442 0.511886 16.594 -0.000115071 17.9167 -0.000114956C18.002 -0.000114948 18.066 -0.000114943 18.1087 -0.000114939C19.73 -0.000114797 21.0954 0.469219 22.2047 1.40789C23.2714 2.34655 23.8047 3.75455 23.8047 5.63189C23.762 7.50922 22.802 9.66389 20.9247 12.0959C19.0047 14.5279 17.17 16.4692 15.4207 17.9199ZM3.38869 17.9199C3.30335 17.9626 3.15402 17.9839 2.94069 17.9839C2.68469 17.9839 2.15135 17.8346 1.34069 17.5359C0.53002 17.2799 0.0820199 17.0879 -0.00331298 16.9599C2.13002 14.4852 3.83669 12.2879 5.11669 10.3679C3.92202 10.0692 2.94069 9.45055 2.17269 8.51188C1.36202 7.61589 0.956687 6.46389 0.956687 5.05589C0.956687 3.69055 1.44735 2.49589 2.42869 1.47188C3.41002 0.490551 4.58335 -0.000116121 5.94869 -0.000116002C6.03402 -0.000115994 6.09802 -0.000115989 6.14069 -0.000115985C7.71935 -0.000115847 9.06335 0.469218 10.1727 1.40789C11.2394 2.34655 11.7727 3.58389 11.7727 5.11989C11.7727 6.69855 11.1754 8.44789 9.98069 10.3679C8.14602 13.2692 5.94869 15.7866 3.38869 17.9199Z" fill="url(#paint0_linear_2830_1441)"/>
<defs>
<linearGradient id="paint0_linear_2830_1441" x1="11.9007" y1="17.9839" x2="11.9007" y2="-0.000115482" gradientUnits="userSpaceOnUse">
<stop stop-color="#E1562A"/>
<stop offset="1" stop-color="#FFAD0D"/>
</linearGradient>
</defs>
</svg>
