<svg width="24" height="18" viewBox="0 0 24 18" fill="none" xmlns="http://www.w3.org/2000/svg">
<path d="M8.384 0.0639992C8.46933 0.0213331 8.64 0 8.896 0C9.152 0 9.664 0.128 10.432 0.383999C11.2 0.639998 11.6907 0.853331 11.904 1.024C10.2827 2.85866 8.53333 5.056 6.656 7.616C7.85067 7.91467 8.85333 8.53333 9.664 9.472C10.4747 10.4107 10.88 11.5627 10.88 12.928C10.88 14.2507 10.368 15.424 9.344 16.448C8.36267 17.472 7.21067 17.984 5.888 17.984C5.80267 17.984 5.73867 17.984 5.696 17.984C4.07467 17.984 2.70933 17.5147 1.6 16.576C0.533333 15.6373 0 14.2293 0 12.352C0.0426667 10.4747 1.00267 8.32 2.88 5.888C4.8 3.456 6.63467 1.51467 8.384 0.0639992ZM20.416 0.0639992C20.5013 0.0213331 20.6507 0 20.864 0C21.12 0 21.6533 0.149333 22.464 0.447998C23.2747 0.703997 23.7227 0.895997 23.808 1.024C21.6747 3.49867 19.968 5.696 18.688 7.616C19.8827 7.91467 20.864 8.53333 21.632 9.472C22.4427 10.368 22.848 11.52 22.848 12.928C22.848 14.2933 22.3573 15.488 21.376 16.512C20.3947 17.4933 19.2213 17.984 17.856 17.984C17.7707 17.984 17.7067 17.984 17.664 17.984C16.0853 17.984 14.7413 17.5147 13.632 16.576C12.5653 15.6373 12.032 14.4 12.032 12.864C12.032 11.2853 12.6293 9.536 13.824 7.616C15.6587 4.71467 17.856 2.19733 20.416 0.0639992Z" fill="url(#paint0_linear_2830_1440)"/>
<defs>
<linearGradient id="paint0_linear_2830_1440" x1="11.904" y1="0" x2="11.904" y2="17.984" gradientUnits="userSpaceOnUse">
<stop stop-color="#E1562A"/>
<stop offset="1" stop-color="#FFAD0D"/>
</linearGradient>
</defs>
</svg>
